<mxfile host="65bd71144e">
    <diagram id="lIDPH8yES9VGqb5J8jdm" name="η">
        <mxGraphModel dx="654" dy="1032" grid="1" gridSize="10" guides="1" tooltips="1" connect="1" arrows="1" fold="1" page="1" pageScale="1" pageWidth="827" pageHeight="1169" math="0" shadow="0">
            <root>
                <mxCell id="0"/>
                <mxCell id="1" parent="0"/>
                <mxCell id="2" value="&lt;font style=&quot;font-size: 22px;&quot;&gt;C&lt;/font&gt;" style="rounded=1;whiteSpace=wrap;html=1;align=left;verticalAlign=top;" parent="1" vertex="1">
                    <mxGeometry x="40" y="290" width="120" height="190" as="geometry"/>
                </mxCell>
                <mxCell id="3" value="D" style="rounded=1;whiteSpace=wrap;html=1;align=left;verticalAlign=top;fontSize=22;" parent="1" vertex="1">
                    <mxGeometry x="230" y="290" width="200" height="190" as="geometry"/>
                </mxCell>
                <mxCell id="4" value="" style="shape=flexArrow;endArrow=classic;html=1;entryX=0.25;entryY=0.263;entryDx=0;entryDy=0;entryPerimeter=0;" parent="1" edge="1">
                    <mxGeometry width="50" height="50" relative="1" as="geometry">
                        <mxPoint x="130" y="350.03" as="sourcePoint"/>
                        <mxPoint x="270" y="350" as="targetPoint"/>
                    </mxGeometry>
                </mxCell>
                <mxCell id="7" value="&lt;font style=&quot;font-size: 20px;&quot;&gt;a&lt;/font&gt;" style="text;html=1;align=center;verticalAlign=middle;whiteSpace=wrap;rounded=0;" parent="1" vertex="1">
                    <mxGeometry x="70" y="330" width="60" height="30" as="geometry"/>
                </mxCell>
                <mxCell id="8" value="" style="endArrow=classic;html=1;entryX=0.5;entryY=0.684;entryDx=0;entryDy=0;entryPerimeter=0;" parent="1" source="7" target="2" edge="1">
                    <mxGeometry width="50" height="50" relative="1" as="geometry">
                        <mxPoint x="60" y="590" as="sourcePoint"/>
                        <mxPoint x="110" y="540" as="targetPoint"/>
                    </mxGeometry>
                </mxCell>
                <mxCell id="9" value="&lt;div&gt;&lt;span style=&quot;background-color: transparent; font-size: 20px;&quot;&gt;b=f(a)&lt;/span&gt;&lt;br&gt;&lt;/div&gt;" style="text;html=1;align=center;verticalAlign=middle;whiteSpace=wrap;rounded=0;" parent="1" vertex="1">
                    <mxGeometry x="70" y="420" width="60" height="40" as="geometry"/>
                </mxCell>
                <mxCell id="11" value="F" style="text;html=1;align=center;verticalAlign=middle;whiteSpace=wrap;rounded=0;fontSize=20;" parent="1" vertex="1">
                    <mxGeometry x="160" y="310" width="60" height="30" as="geometry"/>
                </mxCell>
                <mxCell id="12" value="&lt;font style=&quot;font-size: 20px;&quot;&gt;G&lt;/font&gt;" style="text;html=1;align=center;verticalAlign=middle;whiteSpace=wrap;rounded=0;" parent="1" vertex="1">
                    <mxGeometry x="210" y="510" width="60" height="30" as="geometry"/>
                </mxCell>
                <mxCell id="13" value="f" style="text;html=1;align=center;verticalAlign=middle;whiteSpace=wrap;rounded=0;" parent="1" vertex="1">
                    <mxGeometry x="90" y="370" width="60" height="30" as="geometry"/>
                </mxCell>
                <mxCell id="15" value="" style="endArrow=classic;html=1;entryX=0.5;entryY=0.684;entryDx=0;entryDy=0;entryPerimeter=0;" parent="1" edge="1">
                    <mxGeometry width="50" height="50" relative="1" as="geometry">
                        <mxPoint x="290" y="360" as="sourcePoint"/>
                        <mxPoint x="290" y="420" as="targetPoint"/>
                    </mxGeometry>
                </mxCell>
                <mxCell id="17" value="&lt;font style=&quot;font-size: 20px;&quot;&gt;F(a)&lt;/font&gt;" style="text;html=1;align=center;verticalAlign=middle;whiteSpace=wrap;rounded=0;" parent="1" vertex="1">
                    <mxGeometry x="270" y="330" width="60" height="30" as="geometry"/>
                </mxCell>
                <mxCell id="18" value="&lt;font style=&quot;font-size: 20px;&quot;&gt;F(b)&lt;/font&gt;" style="text;html=1;align=center;verticalAlign=middle;whiteSpace=wrap;rounded=0;" parent="1" vertex="1">
                    <mxGeometry x="260" y="425" width="60" height="30" as="geometry"/>
                </mxCell>
                <mxCell id="20" value="F(f)" style="text;html=1;align=center;verticalAlign=middle;whiteSpace=wrap;rounded=0;" parent="1" vertex="1">
                    <mxGeometry x="290" y="370" width="60" height="30" as="geometry"/>
                </mxCell>
                <mxCell id="21" value="G(f)" style="text;html=1;align=center;verticalAlign=middle;whiteSpace=wrap;rounded=0;" parent="1" vertex="1">
                    <mxGeometry x="370" y="370" width="60" height="30" as="geometry"/>
                </mxCell>
                <mxCell id="22" value="" style="endArrow=classic;html=1;entryX=0.5;entryY=0.684;entryDx=0;entryDy=0;entryPerimeter=0;" parent="1" edge="1">
                    <mxGeometry width="50" height="50" relative="1" as="geometry">
                        <mxPoint x="380" y="360" as="sourcePoint"/>
                        <mxPoint x="380" y="420" as="targetPoint"/>
                    </mxGeometry>
                </mxCell>
                <mxCell id="23" value="&lt;font style=&quot;font-size: 20px;&quot;&gt;G(b)&lt;/font&gt;" style="text;html=1;align=center;verticalAlign=middle;whiteSpace=wrap;rounded=0;" parent="1" vertex="1">
                    <mxGeometry x="353" y="425" width="60" height="30" as="geometry"/>
                </mxCell>
                <mxCell id="24" value="" style="curved=1;endArrow=classic;html=1;exitX=0.424;exitY=1.005;exitDx=0;exitDy=0;exitPerimeter=0;entryX=0.666;entryY=0.999;entryDx=0;entryDy=0;entryPerimeter=0;shape=flexArrow;" parent="1" source="2" target="3" edge="1">
                    <mxGeometry width="50" height="50" relative="1" as="geometry">
                        <mxPoint x="130" y="620" as="sourcePoint"/>
                        <mxPoint x="180" y="570" as="targetPoint"/>
                        <Array as="points">
                            <mxPoint x="140" y="540"/>
                            <mxPoint x="230" y="560"/>
                            <mxPoint x="290" y="550"/>
                        </Array>
                    </mxGeometry>
                </mxCell>
                <mxCell id="25" value="&lt;font style=&quot;font-size: 20px;&quot;&gt;G(a)&lt;/font&gt;" style="text;html=1;align=center;verticalAlign=middle;whiteSpace=wrap;rounded=0;" parent="1" vertex="1">
                    <mxGeometry x="353" y="330" width="60" height="30" as="geometry"/>
                </mxCell>
                <mxCell id="26" value="" style="curved=1;endArrow=classic;html=1;entryX=0.5;entryY=0;entryDx=0;entryDy=0;" parent="1" target="25" edge="1">
                    <mxGeometry width="50" height="50" relative="1" as="geometry">
                        <mxPoint x="290" y="330" as="sourcePoint"/>
                        <mxPoint x="340" y="280" as="targetPoint"/>
                        <Array as="points">
                            <mxPoint x="300" y="310"/>
                            <mxPoint x="340" y="300"/>
                        </Array>
                    </mxGeometry>
                </mxCell>
                <mxCell id="27" value="η" style="text;html=1;align=center;verticalAlign=middle;whiteSpace=wrap;rounded=0;fontSize=20;" parent="1" vertex="1">
                    <mxGeometry x="293" y="270" width="60" height="30" as="geometry"/>
                </mxCell>
                <mxCell id="28" value="" style="curved=1;endArrow=classic;html=1;entryX=0.5;entryY=0;entryDx=0;entryDy=0;" parent="1" edge="1">
                    <mxGeometry width="50" height="50" relative="1" as="geometry">
                        <mxPoint x="290" y="455" as="sourcePoint"/>
                        <mxPoint x="383" y="455" as="targetPoint"/>
                        <Array as="points">
                            <mxPoint x="340" y="485"/>
                        </Array>
                    </mxGeometry>
                </mxCell>
                <mxCell id="29" value="η" style="text;html=1;align=center;verticalAlign=middle;whiteSpace=wrap;rounded=0;fontSize=20;" parent="1" vertex="1">
                    <mxGeometry x="310" y="430" width="60" height="30" as="geometry"/>
                </mxCell>
                <mxCell id="52" value="&lt;font style=&quot;font-size: 22px;&quot;&gt;C’&lt;/font&gt;" style="rounded=1;whiteSpace=wrap;html=1;align=left;verticalAlign=top;" parent="1" vertex="1">
                    <mxGeometry x="40" y="650" width="120" height="190" as="geometry"/>
                </mxCell>
                <mxCell id="53" value="D’" style="rounded=1;whiteSpace=wrap;html=1;align=left;verticalAlign=top;fontSize=22;" parent="1" vertex="1">
                    <mxGeometry x="230" y="650" width="200" height="190" as="geometry"/>
                </mxCell>
                <mxCell id="54" value="" style="shape=flexArrow;endArrow=classic;html=1;entryX=0.25;entryY=0.263;entryDx=0;entryDy=0;entryPerimeter=0;" parent="1" edge="1">
                    <mxGeometry width="50" height="50" relative="1" as="geometry">
                        <mxPoint x="130" y="710.03" as="sourcePoint"/>
                        <mxPoint x="270" y="710" as="targetPoint"/>
                    </mxGeometry>
                </mxCell>
                <mxCell id="55" value="&lt;font style=&quot;font-size: 20px;&quot;&gt;f&lt;/font&gt;" style="text;html=1;align=center;verticalAlign=middle;whiteSpace=wrap;rounded=0;" parent="1" vertex="1">
                    <mxGeometry x="70" y="690" width="60" height="30" as="geometry"/>
                </mxCell>
                <mxCell id="56" value="" style="endArrow=classic;html=1;entryX=0.5;entryY=0.684;entryDx=0;entryDy=0;entryPerimeter=0;" parent="1" source="55" target="52" edge="1">
                    <mxGeometry width="50" height="50" relative="1" as="geometry">
                        <mxPoint x="60" y="950" as="sourcePoint"/>
                        <mxPoint x="110" y="900" as="targetPoint"/>
                    </mxGeometry>
                </mxCell>
                <mxCell id="57" value="&lt;div&gt;&lt;span style=&quot;background-color: transparent; font-size: 20px;&quot;&gt;f&#39;&lt;/span&gt;&lt;br&gt;&lt;/div&gt;" style="text;html=1;align=center;verticalAlign=middle;whiteSpace=wrap;rounded=0;" parent="1" vertex="1">
                    <mxGeometry x="70" y="780" width="60" height="40" as="geometry"/>
                </mxCell>
                <mxCell id="58" value="ε’" style="text;html=1;align=center;verticalAlign=middle;whiteSpace=wrap;rounded=0;fontSize=20;" parent="1" vertex="1">
                    <mxGeometry x="160" y="670" width="60" height="30" as="geometry"/>
                </mxCell>
                <mxCell id="59" value="&lt;font style=&quot;font-size: 20px;&quot;&gt;ε’’&lt;/font&gt;" style="text;html=1;align=center;verticalAlign=middle;whiteSpace=wrap;rounded=0;" parent="1" vertex="1">
                    <mxGeometry x="210" y="870" width="60" height="30" as="geometry"/>
                </mxCell>
                <mxCell id="60" value="Fε" style="text;html=1;align=center;verticalAlign=middle;whiteSpace=wrap;rounded=0;" parent="1" vertex="1">
                    <mxGeometry x="90" y="730" width="60" height="30" as="geometry"/>
                </mxCell>
                <mxCell id="61" value="" style="endArrow=classic;html=1;entryX=0.5;entryY=0.684;entryDx=0;entryDy=0;entryPerimeter=0;" parent="1" edge="1">
                    <mxGeometry width="50" height="50" relative="1" as="geometry">
                        <mxPoint x="290" y="720" as="sourcePoint"/>
                        <mxPoint x="290" y="780" as="targetPoint"/>
                    </mxGeometry>
                </mxCell>
                <mxCell id="62" value="&lt;font style=&quot;font-size: 20px;&quot;&gt;Fε(f)&lt;/font&gt;" style="text;html=1;align=center;verticalAlign=middle;whiteSpace=wrap;rounded=0;" parent="1" vertex="1">
                    <mxGeometry x="270" y="690" width="60" height="30" as="geometry"/>
                </mxCell>
                <mxCell id="63" value="&lt;font style=&quot;font-size: 20px;&quot;&gt;Fε&#39;(f&#39;)&lt;/font&gt;" style="text;html=1;align=center;verticalAlign=middle;whiteSpace=wrap;rounded=0;" parent="1" vertex="1">
                    <mxGeometry x="260" y="785" width="60" height="30" as="geometry"/>
                </mxCell>
                <mxCell id="64" value="Fε’○(Fε)&lt;div&gt;=Fε+ε&#39; ?&lt;/div&gt;" style="text;html=1;align=center;verticalAlign=middle;whiteSpace=wrap;rounded=0;" parent="1" vertex="1">
                    <mxGeometry x="290" y="730" width="60" height="30" as="geometry"/>
                </mxCell>
                <mxCell id="65" value="Gε&#39;○(Gε)&lt;div&gt;=Gε+ε&#39;?&lt;/div&gt;" style="text;html=1;align=center;verticalAlign=middle;whiteSpace=wrap;rounded=0;" parent="1" vertex="1">
                    <mxGeometry x="384" y="730" width="60" height="30" as="geometry"/>
                </mxCell>
                <mxCell id="66" value="" style="endArrow=classic;html=1;entryX=0.5;entryY=0.684;entryDx=0;entryDy=0;entryPerimeter=0;" parent="1" edge="1">
                    <mxGeometry width="50" height="50" relative="1" as="geometry">
                        <mxPoint x="380" y="720" as="sourcePoint"/>
                        <mxPoint x="380" y="780" as="targetPoint"/>
                    </mxGeometry>
                </mxCell>
                <mxCell id="67" value="&lt;font style=&quot;font-size: 20px;&quot;&gt;Gε&#39;(f&#39;)&lt;/font&gt;" style="text;html=1;align=center;verticalAlign=middle;whiteSpace=wrap;rounded=0;" parent="1" vertex="1">
                    <mxGeometry x="353" y="785" width="60" height="30" as="geometry"/>
                </mxCell>
                <mxCell id="68" value="" style="curved=1;endArrow=classic;html=1;exitX=0.424;exitY=1.005;exitDx=0;exitDy=0;exitPerimeter=0;entryX=0.666;entryY=0.999;entryDx=0;entryDy=0;entryPerimeter=0;shape=flexArrow;" parent="1" source="52" target="53" edge="1">
                    <mxGeometry width="50" height="50" relative="1" as="geometry">
                        <mxPoint x="130" y="980" as="sourcePoint"/>
                        <mxPoint x="180" y="930" as="targetPoint"/>
                        <Array as="points">
                            <mxPoint x="140" y="900"/>
                            <mxPoint x="230" y="920"/>
                            <mxPoint x="290" y="910"/>
                        </Array>
                    </mxGeometry>
                </mxCell>
                <mxCell id="69" value="&lt;font style=&quot;font-size: 20px;&quot;&gt;Gε(f)&lt;/font&gt;" style="text;html=1;align=center;verticalAlign=middle;whiteSpace=wrap;rounded=0;" parent="1" vertex="1">
                    <mxGeometry x="353" y="690" width="60" height="30" as="geometry"/>
                </mxCell>
                <mxCell id="70" value="" style="curved=1;endArrow=classic;html=1;entryX=0.5;entryY=0;entryDx=0;entryDy=0;" parent="1" target="69" edge="1">
                    <mxGeometry width="50" height="50" relative="1" as="geometry">
                        <mxPoint x="290" y="690" as="sourcePoint"/>
                        <mxPoint x="340" y="640" as="targetPoint"/>
                        <Array as="points">
                            <mxPoint x="300" y="670"/>
                            <mxPoint x="340" y="660"/>
                        </Array>
                    </mxGeometry>
                </mxCell>
                <mxCell id="71" value="η’" style="text;html=1;align=center;verticalAlign=middle;whiteSpace=wrap;rounded=0;fontSize=20;" parent="1" vertex="1">
                    <mxGeometry x="293" y="630" width="60" height="30" as="geometry"/>
                </mxCell>
                <mxCell id="72" value="" style="curved=1;endArrow=classic;html=1;entryX=0.5;entryY=0;entryDx=0;entryDy=0;" parent="1" edge="1">
                    <mxGeometry width="50" height="50" relative="1" as="geometry">
                        <mxPoint x="290" y="815" as="sourcePoint"/>
                        <mxPoint x="383" y="815" as="targetPoint"/>
                        <Array as="points">
                            <mxPoint x="340" y="845"/>
                        </Array>
                    </mxGeometry>
                </mxCell>
                <mxCell id="73" value="η’" style="text;html=1;align=center;verticalAlign=middle;whiteSpace=wrap;rounded=0;fontSize=20;" parent="1" vertex="1">
                    <mxGeometry x="310" y="790" width="60" height="30" as="geometry"/>
                </mxCell>
                <mxCell id="74" value="" style="shape=flexArrow;endArrow=classic;html=1;entryX=0.25;entryY=0.263;entryDx=0;entryDy=0;entryPerimeter=0;endWidth=62.06896551724138;endSize=7.944827586206896;width=51.03448275862069;" parent="1" edge="1">
                    <mxGeometry width="50" height="50" relative="1" as="geometry">
                        <mxPoint x="200" y="580" as="sourcePoint"/>
                        <mxPoint x="200" y="630" as="targetPoint"/>
                    </mxGeometry>
                </mxCell>
                <mxCell id="75" value="y or not？" style="text;html=1;align=center;verticalAlign=middle;whiteSpace=wrap;rounded=0;fontSize=20;" parent="1" vertex="1">
                    <mxGeometry x="250" y="584" width="140" height="30" as="geometry"/>
                </mxCell>
            </root>
        </mxGraphModel>
    </diagram>
    <diagram name="yonda" id="HKgvQE9k8JI99xDn4zeL">
        <mxGraphModel dx="451" dy="712" grid="1" gridSize="10" guides="1" tooltips="1" connect="1" arrows="1" fold="1" page="1" pageScale="1" pageWidth="827" pageHeight="1169" math="0" shadow="0">
            <root>
                <mxCell id="9X0Sy4pHeMin01M-dCY9-0"/>
                <mxCell id="9X0Sy4pHeMin01M-dCY9-1" parent="9X0Sy4pHeMin01M-dCY9-0"/>
                <mxCell id="9X0Sy4pHeMin01M-dCY9-2" value="&lt;font style=&quot;font-size: 22px;&quot;&gt;C&lt;/font&gt;" style="rounded=1;whiteSpace=wrap;html=1;align=left;verticalAlign=top;" vertex="1" parent="9X0Sy4pHeMin01M-dCY9-1">
                    <mxGeometry x="110" y="290" width="120" height="190" as="geometry"/>
                </mxCell>
                <mxCell id="9X0Sy4pHeMin01M-dCY9-3" value="D=F(C)" style="rounded=1;whiteSpace=wrap;html=1;align=left;verticalAlign=top;fontSize=22;" vertex="1" parent="9X0Sy4pHeMin01M-dCY9-1">
                    <mxGeometry x="300" y="290" width="100" height="190" as="geometry"/>
                </mxCell>
                <mxCell id="9X0Sy4pHeMin01M-dCY9-4" value="" style="shape=flexArrow;endArrow=classic;html=1;entryX=0.25;entryY=0.263;entryDx=0;entryDy=0;entryPerimeter=0;" edge="1" parent="9X0Sy4pHeMin01M-dCY9-1">
                    <mxGeometry width="50" height="50" relative="1" as="geometry">
                        <mxPoint x="200" y="350.03" as="sourcePoint"/>
                        <mxPoint x="340" y="350" as="targetPoint"/>
                    </mxGeometry>
                </mxCell>
                <mxCell id="9X0Sy4pHeMin01M-dCY9-5" value="&lt;font style=&quot;font-size: 20px;&quot;&gt;a&lt;/font&gt;" style="text;html=1;align=center;verticalAlign=middle;whiteSpace=wrap;rounded=0;" vertex="1" parent="9X0Sy4pHeMin01M-dCY9-1">
                    <mxGeometry x="140" y="330" width="60" height="30" as="geometry"/>
                </mxCell>
                <mxCell id="9X0Sy4pHeMin01M-dCY9-6" value="" style="endArrow=classic;html=1;entryX=0.5;entryY=0.684;entryDx=0;entryDy=0;entryPerimeter=0;" edge="1" parent="9X0Sy4pHeMin01M-dCY9-1" source="9X0Sy4pHeMin01M-dCY9-5" target="9X0Sy4pHeMin01M-dCY9-2">
                    <mxGeometry width="50" height="50" relative="1" as="geometry">
                        <mxPoint x="130" y="590" as="sourcePoint"/>
                        <mxPoint x="180" y="540" as="targetPoint"/>
                    </mxGeometry>
                </mxCell>
                <mxCell id="9X0Sy4pHeMin01M-dCY9-7" value="&lt;div&gt;&lt;span style=&quot;background-color: transparent; font-size: 20px;&quot;&gt;b=f(a)&lt;/span&gt;&lt;br&gt;&lt;/div&gt;" style="text;html=1;align=center;verticalAlign=middle;whiteSpace=wrap;rounded=0;" vertex="1" parent="9X0Sy4pHeMin01M-dCY9-1">
                    <mxGeometry x="140" y="420" width="60" height="40" as="geometry"/>
                </mxCell>
                <mxCell id="9X0Sy4pHeMin01M-dCY9-8" value="F" style="text;html=1;align=center;verticalAlign=middle;whiteSpace=wrap;rounded=0;fontSize=20;" vertex="1" parent="9X0Sy4pHeMin01M-dCY9-1">
                    <mxGeometry x="230" y="310" width="60" height="30" as="geometry"/>
                </mxCell>
                <mxCell id="9X0Sy4pHeMin01M-dCY9-10" value="f" style="text;html=1;align=center;verticalAlign=middle;whiteSpace=wrap;rounded=0;" vertex="1" parent="9X0Sy4pHeMin01M-dCY9-1">
                    <mxGeometry x="160" y="370" width="60" height="30" as="geometry"/>
                </mxCell>
                <mxCell id="9X0Sy4pHeMin01M-dCY9-11" value="" style="endArrow=classic;html=1;entryX=0.5;entryY=0.684;entryDx=0;entryDy=0;entryPerimeter=0;" edge="1" parent="9X0Sy4pHeMin01M-dCY9-1">
                    <mxGeometry width="50" height="50" relative="1" as="geometry">
                        <mxPoint x="360" y="360" as="sourcePoint"/>
                        <mxPoint x="360" y="420" as="targetPoint"/>
                    </mxGeometry>
                </mxCell>
                <mxCell id="9X0Sy4pHeMin01M-dCY9-12" value="&lt;font style=&quot;font-size: 20px;&quot;&gt;F(a)&lt;/font&gt;" style="text;html=1;align=center;verticalAlign=middle;whiteSpace=wrap;rounded=0;" vertex="1" parent="9X0Sy4pHeMin01M-dCY9-1">
                    <mxGeometry x="340" y="330" width="60" height="30" as="geometry"/>
                </mxCell>
                <mxCell id="9X0Sy4pHeMin01M-dCY9-13" value="&lt;font style=&quot;font-size: 20px;&quot;&gt;F(b)&lt;/font&gt;" style="text;html=1;align=center;verticalAlign=middle;whiteSpace=wrap;rounded=0;" vertex="1" parent="9X0Sy4pHeMin01M-dCY9-1">
                    <mxGeometry x="330" y="425" width="60" height="30" as="geometry"/>
                </mxCell>
                <mxCell id="9X0Sy4pHeMin01M-dCY9-14" value="F(f)" style="text;html=1;align=center;verticalAlign=middle;whiteSpace=wrap;rounded=0;" vertex="1" parent="9X0Sy4pHeMin01M-dCY9-1">
                    <mxGeometry x="310" y="380" width="60" height="30" as="geometry"/>
                </mxCell>
                <mxCell id="9X0Sy4pHeMin01M-dCY9-23" value="η:Ha→F" style="text;html=1;align=center;verticalAlign=middle;whiteSpace=wrap;rounded=0;fontSize=20;" vertex="1" parent="9X0Sy4pHeMin01M-dCY9-1">
                    <mxGeometry x="250" y="490" width="80" height="30" as="geometry"/>
                </mxCell>
                <mxCell id="9X0Sy4pHeMin01M-dCY9-24" value="&lt;font style=&quot;font-size: 22px;&quot;&gt;Set&lt;/font&gt;" style="rounded=1;whiteSpace=wrap;html=1;align=left;verticalAlign=top;" vertex="1" parent="9X0Sy4pHeMin01M-dCY9-1">
                    <mxGeometry x="110" y="570" width="120" height="190" as="geometry"/>
                </mxCell>
                <mxCell id="9X0Sy4pHeMin01M-dCY9-27" value="&lt;font style=&quot;font-size: 20px;&quot;&gt;a&lt;/font&gt;" style="text;html=1;align=center;verticalAlign=middle;whiteSpace=wrap;rounded=0;" vertex="1" parent="9X0Sy4pHeMin01M-dCY9-1">
                    <mxGeometry x="110" y="610" width="60" height="30" as="geometry"/>
                </mxCell>
                <mxCell id="9X0Sy4pHeMin01M-dCY9-28" value="" style="endArrow=classic;html=1;entryX=0.667;entryY=0.316;entryDx=0;entryDy=0;entryPerimeter=0;" edge="1" parent="9X0Sy4pHeMin01M-dCY9-1" target="9X0Sy4pHeMin01M-dCY9-24">
                    <mxGeometry width="50" height="50" relative="1" as="geometry">
                        <mxPoint x="160.00320170757732" y="629.9999999999998" as="sourcePoint"/>
                        <mxPoint x="184" y="689.9599999999998" as="targetPoint"/>
                    </mxGeometry>
                </mxCell>
                <mxCell id="9X0Sy4pHeMin01M-dCY9-29" value="&lt;div&gt;&lt;span style=&quot;background-color: transparent; font-size: 20px;&quot;&gt;f&#39;&lt;/span&gt;&lt;br&gt;&lt;/div&gt;" style="text;html=1;align=center;verticalAlign=middle;whiteSpace=wrap;rounded=0;rotation=0;" vertex="1" parent="9X0Sy4pHeMin01M-dCY9-1">
                    <mxGeometry x="130" y="670" width="50" height="40" as="geometry"/>
                </mxCell>
                <mxCell id="9X0Sy4pHeMin01M-dCY9-32" value="Fε" style="text;html=1;align=center;verticalAlign=middle;whiteSpace=wrap;rounded=0;" vertex="1" parent="9X0Sy4pHeMin01M-dCY9-1">
                    <mxGeometry x="195" y="640" width="30" height="40" as="geometry"/>
                </mxCell>
                <mxCell id="V2_P3XMHpc1-qvQ1712b-0" value="Ha" style="text;html=1;align=center;verticalAlign=middle;whiteSpace=wrap;rounded=0;strokeWidth=3;fontSize=20;" vertex="1" parent="9X0Sy4pHeMin01M-dCY9-1">
                    <mxGeometry x="170" y="500" width="60" height="30" as="geometry"/>
                </mxCell>
                <mxCell id="V2_P3XMHpc1-qvQ1712b-3" value="&lt;font style=&quot;font-size: 20px;&quot;&gt;f&lt;/font&gt;" style="text;html=1;align=center;verticalAlign=middle;whiteSpace=wrap;rounded=0;" vertex="1" parent="9X0Sy4pHeMin01M-dCY9-1">
                    <mxGeometry x="140" y="600" width="60" height="30" as="geometry"/>
                </mxCell>
                <mxCell id="V2_P3XMHpc1-qvQ1712b-5" value="b" style="text;html=1;align=center;verticalAlign=middle;whiteSpace=wrap;rounded=0;fontSize=20;" vertex="1" parent="9X0Sy4pHeMin01M-dCY9-1">
                    <mxGeometry x="190" y="610" width="40" height="30" as="geometry"/>
                </mxCell>
                <mxCell id="V2_P3XMHpc1-qvQ1712b-6" value="b&#39;" style="text;html=1;align=center;verticalAlign=middle;whiteSpace=wrap;rounded=0;fontSize=20;" vertex="1" parent="9X0Sy4pHeMin01M-dCY9-1">
                    <mxGeometry x="190" y="710" width="40" height="30" as="geometry"/>
                </mxCell>
                <mxCell id="V2_P3XMHpc1-qvQ1712b-8" value="" style="endArrow=classic;html=1;entryX=0;entryY=0.5;entryDx=0;entryDy=0;exitX=0.75;exitY=1;exitDx=0;exitDy=0;" edge="1" parent="9X0Sy4pHeMin01M-dCY9-1" source="9X0Sy4pHeMin01M-dCY9-27" target="V2_P3XMHpc1-qvQ1712b-6">
                    <mxGeometry width="50" height="50" relative="1" as="geometry">
                        <mxPoint x="170.00320170757732" y="639.9999999999998" as="sourcePoint"/>
                        <mxPoint x="200" y="640" as="targetPoint"/>
                    </mxGeometry>
                </mxCell>
                <mxCell id="V2_P3XMHpc1-qvQ1712b-9" value="" style="shape=flexArrow;endArrow=classic;html=1;" edge="1" parent="9X0Sy4pHeMin01M-dCY9-1">
                    <mxGeometry width="50" height="50" relative="1" as="geometry">
                        <mxPoint x="170" y="490" as="sourcePoint"/>
                        <mxPoint x="170" y="560" as="targetPoint"/>
                    </mxGeometry>
                </mxCell>
                <mxCell id="ZQj4NnXZvZyog8yiKpqO-5" value="" style="curved=1;endArrow=classic;html=1;entryX=0.61;entryY=1.102;entryDx=0;entryDy=0;entryPerimeter=0;" edge="1" parent="9X0Sy4pHeMin01M-dCY9-1" target="9X0Sy4pHeMin01M-dCY9-8">
                    <mxGeometry width="50" height="50" relative="1" as="geometry">
                        <mxPoint x="220" y="510" as="sourcePoint"/>
                        <mxPoint x="50" y="470" as="targetPoint"/>
                        <Array as="points">
                            <mxPoint x="270" y="500"/>
                        </Array>
                    </mxGeometry>
                </mxCell>
                <mxCell id="ZQj4NnXZvZyog8yiKpqO-9" value="" style="curved=1;endArrow=classic;html=1;entryX=0.976;entryY=0.316;entryDx=0;entryDy=0;entryPerimeter=0;" edge="1" parent="9X0Sy4pHeMin01M-dCY9-1" target="9X0Sy4pHeMin01M-dCY9-29">
                    <mxGeometry width="50" height="50" relative="1" as="geometry">
                        <mxPoint x="175" y="640" as="sourcePoint"/>
                        <mxPoint x="225" y="590" as="targetPoint"/>
                        <Array as="points">
                            <mxPoint x="185" y="650"/>
                            <mxPoint x="200" y="665"/>
                        </Array>
                    </mxGeometry>
                </mxCell>
                <mxCell id="ZQj4NnXZvZyog8yiKpqO-12" value="&lt;font style=&quot;font-size: 25px;&quot;&gt;(η:Ha→F) ~= F(a)&lt;/font&gt;&lt;div&gt;&lt;font style=&quot;font-size: 25px;&quot;&gt;&lt;br&gt;&lt;/font&gt;&lt;/div&gt;&lt;div&gt;&lt;font style=&quot;font-size: 25px;&quot;&gt;F(f)=Fε&lt;/font&gt;&lt;/div&gt;" style="text;html=1;align=center;verticalAlign=middle;whiteSpace=wrap;rounded=0;fontSize=20;" vertex="1" parent="9X0Sy4pHeMin01M-dCY9-1">
                    <mxGeometry x="260" y="570" width="210" height="70" as="geometry"/>
                </mxCell>
            </root>
        </mxGraphModel>
    </diagram>
</mxfile>